<svg xmlns="http://www.w3.org/2000/svg" viewBox="0 0 443.76 118.83"><defs><style>.cls-1{fill:#6e6f72;}.cls-2{fill:#13cdf0;}.cls-3{fill:#0ca8de;}</style></defs><title>logomonitora</title><g id="text"><path class="cls-1" d="M431.44,316.95h-10V292.38q0-3.47-2.1-5.06a7.59,7.59,0,0,0-4.7-1.59,7.29,7.29,0,0,0-4.62,1.59q-2,1.59-2,5.06v24.57H397.91V294.4q0-9.83,5.13-13.15a22.43,22.43,0,0,1,11.35-3.61,29.31,29.31,0,0,1,6.5.72,13.69,13.69,0,0,1,5.78,2.89,12.79,12.79,0,0,1,5.13-2.67,28.79,28.79,0,0,1,6.14-.94A21.76,21.76,0,0,1,449.65,281Q455,284.29,455,294.4v22.55h-5.06A4.7,4.7,0,0,1,445,312V292.38q0-3.47-2.1-5.06a7.73,7.73,0,0,0-9.39,0q-2.1,1.59-2.1,5.06v24.57Z" transform="translate(-221.11 -233.06)"/><path class="cls-1" d="M464.81,313.48a14.28,14.28,0,0,1-4.34-7,32.25,32.25,0,0,1-1.3-9.18,29,29,0,0,1,1.08-7.8,16.1,16.1,0,0,1,3.4-6.5,15,15,0,0,1,9.68-5.13,22.3,22.3,0,0,1,10.7.94,14.74,14.74,0,0,1,8.09,7.52,24,24,0,0,1,2.46,11.13,27.54,27.54,0,0,1-1,7.95A20.35,20.35,0,0,1,491,311a14.44,14.44,0,0,1-8.82,5.93,19.67,19.67,0,0,1-9.61.22A16.8,16.8,0,0,1,464.81,313.48ZM471.75,288q-3,3.33-2.75,9.9t2.46,9.18a6.47,6.47,0,0,0,3,2,6.89,6.89,0,0,0,4.41.14,7.39,7.39,0,0,0,4-3.25q1.73-2.6,1.88-8.38,0-5.2-1.66-7.8a7.53,7.53,0,0,0-3.83-3.32,7,7,0,0,0-4.34-.07A7.53,7.53,0,0,0,471.75,288Z" transform="translate(-221.11 -233.06)"/><path class="cls-1" d="M532,316.95h-5.06A4.7,4.7,0,0,1,522,312V292.38q0-3.47-2.1-5.06a7.59,7.59,0,0,0-4.7-1.59,7.29,7.29,0,0,0-4.62,1.59q-2,1.59-2,5.06v24.57H498.47V294.4q0-9.83,5.13-13.15a22.43,22.43,0,0,1,11.35-3.61A21.76,21.76,0,0,1,526.65,281Q532,284.29,532,294.4Z" transform="translate(-221.11 -233.06)"/><path class="cls-1" d="M536.75,267.23H542a4.93,4.93,0,0,1,4.91,4.91v3H536.75Zm0,11.27H542a4.93,4.93,0,0,1,4.91,4.91v33.53H536.75Z" transform="translate(-221.11 -233.06)"/><path class="cls-1" d="M566.65,316.95a75.24,75.24,0,0,1-10.33-.14q-5.56-.43-5.56-7.08V267.23H556a4.58,4.58,0,0,1,3.32,1.45,4.74,4.74,0,0,1,1.45,3.47v6.5h5.93v2a4.67,4.67,0,0,1-1.45,3.54,4.85,4.85,0,0,1-3.47,1.37h-1V307q0,2.46,2.89,2.46h3Z" transform="translate(-221.11 -233.06)"/><path class="cls-1" d="M574.58,313.48a14.28,14.28,0,0,1-4.34-7,32.25,32.25,0,0,1-1.3-9.18,29,29,0,0,1,1.08-7.8,16.1,16.1,0,0,1,3.4-6.5,15,15,0,0,1,9.68-5.13,22.3,22.3,0,0,1,10.7.94,14.74,14.74,0,0,1,8.09,7.52,24,24,0,0,1,2.46,11.13,27.54,27.54,0,0,1-1,7.95,20.34,20.34,0,0,1-2.6,5.64,14.44,14.44,0,0,1-8.82,5.93,19.67,19.67,0,0,1-9.61.22A16.8,16.8,0,0,1,574.58,313.48ZM581.52,288q-3,3.33-2.75,9.9t2.46,9.18a6.47,6.47,0,0,0,3,2,6.89,6.89,0,0,0,4.41.14,7.39,7.39,0,0,0,4-3.25q1.73-2.6,1.88-8.38,0-5.2-1.66-7.8a7.53,7.53,0,0,0-3.83-3.32,7,7,0,0,0-4.34-.07A7.53,7.53,0,0,0,581.52,288Z" transform="translate(-221.11 -233.06)"/><path class="cls-1" d="M608.24,316.95V298.3a23.8,23.8,0,0,1,1.66-9.47,15.67,15.67,0,0,1,4.55-6.14,17.89,17.89,0,0,1,6.43-3.18,28.6,28.6,0,0,1,7.59-1h1.45v10.26h-3.32q-4.19,0-6.21,2t-2,6.36v19.8Z" transform="translate(-221.11 -233.06)"/><path class="cls-1" d="M657.79,315.36a17.8,17.8,0,0,1-6.43,2,57.92,57.92,0,0,1-6,.36,15.14,15.14,0,0,1-9.11-2.82q-3.9-2.82-3.9-9.32,0-6.07,3.54-8.67a20.4,20.4,0,0,1,9-3.47,8.48,8.48,0,0,0,1.73-.22c.67-.14,1.45-.26,2.31-.36q6.36-.87,6.36-3.76a2.74,2.74,0,0,0-2.24-2.82,14.88,14.88,0,0,0-4.12-.65,10.56,10.56,0,0,0-3.61.58,3.94,3.94,0,0,0-2.31,2.17h-9.68a11.13,11.13,0,0,1,4-7.37q3.9-3.32,11.13-3.32,8.09,0,12.14,2.75a9.28,9.28,0,0,1,4.19,8.09v13.15q0,5.78-2.1,9A12.81,12.81,0,0,1,657.79,315.36Zm-2.31-17.78a27.27,27.27,0,0,1-5.64,1.88l-3.32.72a8.55,8.55,0,0,0-3.76,1.88,5.89,5.89,0,0,0-1,3.18,4.69,4.69,0,0,0,1.3,3.47,5.47,5.47,0,0,0,3.76,1.16,8,8,0,0,0,8.67-8.67Z" transform="translate(-221.11 -233.06)"/><text x="-221.11" y="-233.06"></text></g><g id="logo"><path class="cls-2" d="M381,296.66a51.7,51.7,0,0,0-51.36-47.86c-.58,0-1.17,0-1.76,0a34.89,34.89,0,0,1,4.12,6.63,45,45,0,0,1,.79,89.72c-1.08.08-2.18.12-3.26.12a44.77,44.77,0,0,1-44.2-37,26.21,26.21,0,0,0-24.72-34.9,26.27,26.27,0,0,0-26.2,26v1.71h9l0-1.68a17.19,17.19,0,1,1,17.19,17.34h-.29l-1.76-.05v9l1.67,0h.37a26.06,26.06,0,0,0,20-9.3,51.45,51.45,0,0,0,48.91,35.38c1.24,0,2.49,0,3.73-.13A51.54,51.54,0,0,0,381,296.66Z" transform="translate(-221.11 -233.06)"/><path class="cls-3" d="M334.18,261.5a35.45,35.45,0,0,1,1.19,9.11s0,.1,0,.15a30.15,30.15,0,1,1-36,29.58c0-.18,0-.36,0-.54h0a39.11,39.11,0,0,0-62.94-31l0-.06a39.11,39.11,0,0,0,46,63.21,39,39,0,0,1-4.11-8.08,30.15,30.15,0,0,1-48.28-24.32h.07a30.15,30.15,0,0,1,60.3.27h0c0,.18,0,.36,0,.54a39.12,39.12,0,1,0,43.75-38.84Z" transform="translate(-221.11 -233.06)"/><path class="cls-3" d="M281,262.66a20.93,20.93,0,1,1,21.09,28.93,19.5,19.5,0,0,1,.51,3.88c.08.76.14,1.53.18,2.3A27.16,27.16,0,1,0,275.39,260,42.44,42.44,0,0,1,281,262.66Z" transform="translate(-221.11 -233.06)"/><path class="cls-2" d="M289.08,268.48l.25,0A11.73,11.73,0,1,1,299.06,282l-.1,0q.82,1.78,1.48,3.64a15.21,15.21,0,1,0-14.13-19.52Q287.75,267.25,289.08,268.48Z" transform="translate(-221.11 -233.06)"/><path class="cls-2" d="M334.52,278A34.9,34.9,0,0,1,307,305a22.91,22.91,0,1,0,27.5-27Z" transform="translate(-221.11 -233.06)"/></g></svg>