<?xml version="1.0" encoding="UTF-8"?>
<svg width="186px" height="39px" viewBox="0 0 186 39" version="1.1" xmlns="http://www.w3.org/2000/svg" xmlns:xlink="http://www.w3.org/1999/xlink">
    <title>logo_formerly_monitora_blue</title>
    <g id="desktop" stroke="none" stroke-width="1" fill="none" fill-rule="evenodd">
        <g id="logo_formerly_monitora_blue" fill-rule="nonzero">
            <path d="M23.3481985,13.0339426 C23.3481985,9.33681462 20.5795217,6.76762402 16.7606573,6.76762402 C14.7557535,6.76762402 13.1009122,7.51958225 11.9870767,8.83550914 C10.936889,7.51958225 9.31387161,6.76762402 7.27714391,6.76762402 C3.49010333,6.76762402 0.498659517,9.33681462 0.498659517,13.0339426 L0.498659517,23.4986945 L4.95400137,23.4986945 L4.95400137,12.9712794 C4.95400137,11.5926893 5.94054135,10.5900783 7.30896778,10.5900783 C8.67739421,10.5900783 9.69575806,11.5926893 9.69575806,12.9712794 L9.69575806,23.4986945 L14.1510999,23.4986945 L14.1510999,12.9712794 C14.1510999,11.5926893 15.1376399,10.5900783 16.5060663,10.5900783 C17.8744927,10.5900783 18.8928566,11.5926893 18.8928566,12.9712794 L18.8928566,23.4986945 L23.3481985,23.4986945 L23.3481985,13.0339426 Z M42.0288104,20.8668407 L39.4510769,18.2036554 C38.3690653,19.5509138 37.1597582,20.1148825 35.3139737,20.1148825 C33.0226551,20.1148825 31.5269331,18.8929504 31.0495751,16.7624021 L43.1744697,16.7624021 C43.2699413,16.3550914 43.3017652,15.8224543 43.3017652,15.383812 C43.3017652,10.3707572 40.0557304,6.76762402 35.2185021,6.76762402 C30.094859,6.76762402 26.4351139,10.3394256 26.4351139,15.383812 C26.4351139,20.3655352 30.0630351,24 35.2821498,24 C38.0826504,24 40.3421452,23.0287206 42.0288104,20.8668407 Z M35.1230305,10.5900783 C37.1915821,10.5900783 38.6236562,11.9373368 38.9418949,13.9738903 L31.0495751,13.9738903 C31.4951093,11.8746736 32.9590073,10.5900783 35.1230305,10.5900783 Z M45.4021406,15.383812 C45.4021406,20.45953 48.7118232,24 53.3899321,24 C55.8085462,24 57.8770978,23.0287206 58.9272855,21.305483 L59.054581,21.305483 C59.0227572,21.618799 58.9909333,22.0887728 58.9909333,22.7780679 L58.9909333,23.4986945 L63.0643887,23.4986945 L63.0643887,0.25 L58.6726946,0.25 L58.6726946,7.58224543 C58.6726946,8.45953003 58.7045185,8.77284595 58.7363423,8.9921671 L58.6090468,8.9921671 C57.7816262,7.61357702 55.7767224,6.76762402 53.5808753,6.76762402 C48.8391186,6.76762402 45.4021406,10.308094 45.4021406,15.383812 Z M54.3446482,20.0835509 C51.7669147,20.0835509 49.8893064,18.1409922 49.8893064,15.3211488 C49.8893064,12.5326371 51.7669147,10.5900783 54.3446482,10.5900783 C56.9542056,10.5900783 58.8318139,12.5326371 58.8318139,15.3211488 C58.8318139,18.1409922 56.9542056,20.0835509 54.3446482,20.0835509 Z M69.5882821,5.1383812 C71.0521802,5.1383812 72.2296634,4.01044386 72.2296634,2.5691906 C72.2296634,1.12793734 71.0521802,0 69.5882821,0 C68.1243841,0 66.9469009,1.12793734 66.9469009,2.5691906 C66.9469009,4.01044386 68.1243841,5.1383812 69.5882821,5.1383812 Z M71.8477769,23.4986945 L71.8477769,7.2689295 L67.3924351,7.2689295 L67.3924351,23.4986945 L71.8477769,23.4986945 Z M75.1256356,15.383812 C75.1256356,20.45953 78.4353181,24 83.1452509,24 C85.6593367,24 87.6960644,22.9347258 88.6507805,21.2428198 L88.778076,21.2428198 C88.7462521,21.5874674 88.7144282,22.0261097 88.7144282,22.7467363 L88.7144282,23.4986945 L92.7878836,23.4986945 L92.7878836,7.2689295 L89.7089242,7.2689295 C89.0671428,8.48041775 88.7568601,9.16971279 88.778076,9.33681462 L88.6507805,9.33681462 C87.791536,7.83289817 85.8502799,6.76762402 83.3361941,6.76762402 C78.6262613,6.76762402 75.1256356,10.308094 75.1256356,15.383812 Z M84.0681432,20.1148825 C81.4904097,20.1148825 79.6128013,18.1409922 79.6128013,15.3211488 C79.6128013,12.5326371 81.4904097,10.5900783 84.0681432,10.5900783 C86.6777005,10.5900783 88.5553089,12.5326371 88.5553089,15.3211488 C88.5553089,18.1409922 86.6777005,20.1148825 84.0681432,20.1148825 Z M114.778178,15.383812 C114.778178,10.308094 111.3412,6.76762402 106.631267,6.76762402 C104.403596,6.76762402 102.430516,7.67624021 101.571272,9.05483029 L101.4758,9.05483029 C101.507624,8.80417755 101.539448,8.49086162 101.539448,7.64490862 L101.539448,0.25 L97.11593,0.25 L97.11593,23.4986945 L101.221209,23.4986945 L101.221209,22.8720627 C101.221209,22.151436 101.189385,21.6814621 101.157562,21.3681462 L101.253033,21.3681462 C102.303221,23.0287206 104.371772,24 106.790387,24 C111.468496,24 114.778178,20.45953 114.778178,15.383812 Z M105.83567,20.1148825 C103.226113,20.1148825 101.380329,18.1409922 101.380329,15.3211488 C101.380329,12.5013055 103.226113,10.5900783 105.83567,10.5900783 C108.445228,10.5900783 110.322836,12.5013055 110.322836,15.3211488 C110.322836,18.1409922 108.445228,20.1148825 105.83567,20.1148825 Z M125.789237,24 C130.91288,24 134.636273,20.3655352 134.636273,15.383812 C134.636273,10.3707572 130.91288,6.76762402 125.789237,6.76762402 C120.665594,6.76762402 116.974025,10.3707572 116.974025,15.383812 C116.974025,20.3655352 120.665594,24 125.789237,24 Z M125.789237,20.1148825 C123.211504,20.1148825 121.429367,18.1409922 121.429367,15.3211488 C121.429367,12.5326371 123.211504,10.5900783 125.789237,10.5900783 C128.398795,10.5900783 130.149107,12.5326371 130.149107,15.3211488 C130.149107,18.1409922 128.398795,20.1148825 125.789237,20.1148825 Z M136.460756,15.383812 C136.460756,20.45953 140.123089,24 144.833022,24 C147.347107,24 149.383835,22.9347258 150.338551,21.2428198 L150.465847,21.2428198 C150.434023,21.5874674 150.402199,22.0261097 150.402199,22.7467363 L150.402199,23.4986945 L154.475654,23.4986945 L154.475654,7.2689295 L151.396695,7.2689295 C150.754914,8.48041775 150.444631,9.16971279 150.465847,9.33681462 L150.338551,9.33681462 C149.479307,7.83289817 147.538051,6.76762402 145.023965,6.76762402 C140.314032,6.76762402 136.460756,10.308094 136.460756,15.383812 Z M145.755914,20.1148825 C143.17818,20.1148825 141.300572,18.1409922 141.300572,15.3211488 C141.300572,12.5326371 143.17818,10.5900783 145.755914,10.5900783 C148.365471,10.5900783 150.24308,12.5326371 150.24308,15.3211488 C150.24308,18.1409922 148.365471,20.1148825 145.755914,20.1148825 Z M158.77319,7.2689295 L158.77319,23.4986945 L163.228532,23.4986945 L163.228532,11.1227154 L166.729158,11.1227154 L166.729158,7.2689295 L158.77319,7.2689295 Z M168.337752,15.383812 C168.337752,20.45953 171.647434,24 176.325543,24 C178.744158,24 180.812709,23.0287206 181.862897,21.305483 L181.990192,21.305483 C181.958368,21.618799 181.926545,22.0887728 181.926545,22.7780679 L181.926545,23.4986945 L186,23.4986945 L186,0.25 L181.608306,0.25 L181.608306,7.58224543 C181.608306,8.45953003 181.64013,8.77284595 181.671954,8.9921671 L181.544658,8.9921671 C180.717238,7.61357702 178.712334,6.76762402 176.516487,6.76762402 C171.77473,6.76762402 168.337752,10.308094 168.337752,15.383812 Z M177.28026,20.0835509 C174.702526,20.0835509 172.824918,18.1409922 172.824918,15.3211488 C172.824918,12.5326371 174.702526,10.5900783 177.28026,10.5900783 C179.889817,10.5900783 181.767425,12.5326371 181.767425,15.3211488 C181.767425,18.1409922 179.889817,20.0835509 177.28026,20.0835509 Z" id="logo" fill="#0D61FF"/>
            <path d="M3.39322186,30.4588235 L3.39322186,31.4294118 L0,31.4294118 L0,30.4588235 L3.39322186,30.4588235 Z M0.930399541,36.6705882 L0.930399541,29.7389706 C0.930399541,29.3507353 1.01249362,29.0278799 1.17668177,28.7704044 C1.34086993,28.5129289 1.55848439,28.3201593 1.82952515,28.1920956 C2.10056591,28.0640319 2.39506212,28 2.71301379,28 C2.94756829,28 3.14824271,28.0195466 3.31503702,28.0586397 C3.48183134,28.0977328 3.60562399,28.1334559 3.68641499,28.1658088 L3.41276807,29.1444853 C3.35803868,29.1283088 3.28767233,29.1087623 3.20166901,29.0858456 C3.11566569,29.0629289 3.01141924,29.0514706 2.88892967,29.0514706 C2.6048581,29.0514706 2.40222907,29.1242647 2.28104257,29.2698529 C2.15985608,29.4154412 2.09926283,29.6257353 2.09926283,29.9007353 L2.09926283,36.6705882 L0.930399541,36.6705882 Z M6.888084,36.7959559 C6.32515318,36.7959559 5.8338918,36.6625 5.41429985,36.3955882 C4.9947079,36.1286765 4.66893775,35.7552696 4.43698941,35.2753676 C4.20504106,34.7954657 4.08906689,34.2346814 4.08906689,33.5930147 C4.08906689,32.948652 4.20504106,32.3851716 4.43698941,31.9025735 C4.66893775,31.4199755 4.9947079,31.0452206 5.41429985,30.7783088 C5.8338918,30.5113971 6.32515318,30.3779412 6.888084,30.3779412 C7.45101481,30.3779412 7.9422762,30.5113971 8.36186815,30.7783088 C8.7814601,31.0452206 9.10723024,31.4199755 9.33917859,31.9025735 C9.57112693,32.3851716 9.68710111,32.948652 9.68710111,33.5930147 C9.68710111,34.2346814 9.57112693,34.7954657 9.33917859,35.2753676 C9.10723024,35.7552696 8.7814601,36.1286765 8.36186815,36.3955882 C7.9422762,36.6625 7.45101481,36.7959559 6.888084,36.7959559 Z M6.89199324,35.7808824 C7.25685581,35.7808824 7.5591705,35.6811275 7.79893733,35.4816176 C8.03870416,35.2821078 8.21657466,35.0165441 8.33254883,34.6849265 C8.44852301,34.3533088 8.50651009,33.9879902 8.50651009,33.5889706 C8.50651009,33.1926471 8.44852301,32.8280025 8.33254883,32.4950368 C8.21657466,32.1620711 8.03870416,31.8944853 7.79893733,31.6922794 C7.5591705,31.4900735 7.25685581,31.3889706 6.89199324,31.3889706 C6.52452451,31.3889706 6.2202552,31.4900735 5.97918529,31.6922794 C5.73811538,31.8944853 5.55959334,32.1620711 5.44361917,32.4950368 C5.32764499,32.8280025 5.26965791,33.1926471 5.26965791,33.5889706 C5.26965791,33.9879902 5.32764499,34.3533088 5.44361917,34.6849265 C5.55959334,35.0165441 5.73811538,35.2821078 5.97918529,35.4816176 C6.2202552,35.6811275 6.52452451,35.7808824 6.89199324,35.7808824 Z M10.9888786,36.6705882 L10.9888786,30.4588235 L12.1186495,30.4588235 L12.1186495,31.4455882 L12.1811974,31.4455882 C12.2906561,31.1112745 12.4841636,30.8477328 12.7617198,30.6549632 C13.0392759,30.4621936 13.3539699,30.3658088 13.7058016,30.3658088 C13.7787742,30.3658088 13.865429,30.3685049 13.9657662,30.3738971 C14.0661034,30.3792892 14.1449398,30.3860294 14.2022754,30.3941176 L14.2022754,31.5507353 C14.1553645,31.5372549 14.0719673,31.5217525 13.9520839,31.5042279 C13.8322005,31.4867034 13.712317,31.4779412 13.5924336,31.4779412 C13.3161806,31.4779412 13.0705499,31.5379289 12.8555416,31.6579044 C12.6405333,31.7778799 12.4704812,31.9436887 12.3453855,32.1553309 C12.2202898,32.366973 12.1577419,32.607598 12.1577419,32.8772059 L12.1577419,36.6705882 L10.9888786,36.6705882 Z M15.2186782,36.6705882 L15.2186782,30.4588235 L16.3406306,30.4588235 L16.3406306,31.4698529 L16.4149062,31.4698529 C16.5400019,31.127451 16.7445856,30.8598652 17.0286572,30.6670956 C17.3127287,30.474326 17.6528328,30.3779412 18.0489693,30.3779412 C18.4503181,30.3779412 18.7871644,30.475 19.0595083,30.6691176 C19.3318521,30.8632353 19.533178,31.1301471 19.6634861,31.4698529 L19.726034,31.4698529 C19.8693728,31.1382353 20.0974119,30.8733456 20.4101513,30.6751838 C20.7228906,30.4770221 21.0955717,30.3779412 21.5281944,30.3779412 C22.0728821,30.3779412 22.5178841,30.5545343 22.8632005,30.9077206 C23.2085168,31.2609069 23.381175,31.7933824 23.381175,32.5051471 L23.381175,36.6705882 L22.2123117,36.6705882 L22.2123117,32.6183824 C22.2123117,32.1977941 22.1015499,31.8931373 21.8800262,31.7044118 C21.6585025,31.5156863 21.3939771,31.4213235 21.0864501,31.4213235 C20.7059506,31.4213235 20.4101513,31.541973 20.1990522,31.7832721 C19.9879532,32.0245711 19.8824036,32.3339461 19.8824036,32.7113971 L19.8824036,36.6705882 L18.7174496,36.6705882 L18.7174496,32.5415441 C18.7174496,32.2045343 18.6158093,31.9335784 18.4125287,31.7286765 C18.2092482,31.5237745 17.9447228,31.4213235 17.6189527,31.4213235 C17.397429,31.4213235 17.1934968,31.4813113 17.0071563,31.6012868 C16.8208158,31.7212623 16.6709615,31.8877451 16.5575935,32.1007353 C16.4442255,32.3137255 16.3875415,32.5604167 16.3875415,32.8408088 L16.3875415,36.6705882 L15.2186782,36.6705882 Z M27.5327898,36.7959559 C26.9411912,36.7959559 26.4323382,36.6645221 26.0062309,36.4016544 C25.5801235,36.1387868 25.2517472,35.768076 25.021102,35.2895221 C24.7904567,34.8109681 24.6751341,34.2495098 24.6751341,33.6051471 C24.6751341,32.9688725 24.7904567,32.4080882 25.021102,31.9227941 C25.2517472,31.4375 25.5749112,31.058701 25.9905939,30.7863971 C26.4062766,30.5140931 26.8929772,30.3779412 27.4506957,30.3779412 C27.7894967,30.3779412 28.117873,30.4359069 28.4358246,30.5518382 C28.7537763,30.6677696 29.039151,30.8497549 29.2919486,31.0977941 C29.5447462,31.3458333 29.7441175,31.6673407 29.8900626,32.0623162 C30.0360076,32.4572917 30.1089801,32.9365196 30.1089801,33.5 L30.1089801,33.9286765 L25.3357959,33.9286765 L25.3357959,33.0227941 L28.9635723,33.0227941 C28.9635723,32.7046569 28.9010244,32.4222426 28.7759287,32.1755515 C28.6508329,31.9288603 28.4755686,31.7340686 28.2501357,31.5911765 C28.0247027,31.4482843 27.7608289,31.3768382 27.4585142,31.3768382 C27.1301379,31.3768382 26.8441117,31.4597426 26.6004356,31.6255515 C26.3567596,31.7913603 26.169116,32.0070466 26.0375048,32.2726103 C25.9058937,32.538174 25.8400881,32.8259804 25.8400881,33.1360294 L25.8400881,33.84375 C25.8400881,34.2589461 25.911106,34.6121324 26.0531418,34.9033088 C26.1951776,35.1944853 26.3938974,35.4162377 26.6493011,35.5685662 C26.9047049,35.7208946 27.2031104,35.7970588 27.5445175,35.7970588 C27.7660412,35.7970588 27.9680187,35.7640319 28.15045,35.6979779 C28.3328813,35.631924 28.490554,35.5328431 28.6234682,35.4007353 C28.7563825,35.2686275 28.8580227,35.1055147 28.9283891,34.9113971 L30.0347045,35.1176471 C29.946095,35.4546569 29.7877707,35.7492034 29.5597316,36.0012868 C29.3316925,36.2533701 29.0463179,36.4488358 28.7036077,36.5876838 C28.3608975,36.7265319 27.9706249,36.7959559 27.5327898,36.7959559 Z M31.4107576,36.6705882 L31.4107576,30.4588235 L32.5405285,30.4588235 L32.5405285,31.4455882 L32.6030764,31.4455882 C32.7125351,31.1112745 32.9060426,30.8477328 33.1835988,30.6549632 C33.4611549,30.4621936 33.7758489,30.3658088 34.1276807,30.3658088 C34.2006532,30.3658088 34.287308,30.3685049 34.3876452,30.3738971 C34.4879824,30.3792892 34.5668188,30.3860294 34.6241544,30.3941176 L34.6241544,31.5507353 C34.5772435,31.5372549 34.4938463,31.5217525 34.3739629,31.5042279 C34.2540795,31.4867034 34.1341961,31.4779412 34.0143126,31.4779412 C33.7380596,31.4779412 33.4924289,31.5379289 33.2774206,31.6579044 C33.0624123,31.7778799 32.8923603,31.9436887 32.7672645,32.1553309 C32.6421688,32.366973 32.5796209,32.607598 32.5796209,32.8772059 L32.5796209,36.6705882 L31.4107576,36.6705882 Z M36.8094205,28.3882353 L36.8094205,36.6705882 L35.6405572,36.6705882 L35.6405572,28.3882353 L36.8094205,28.3882353 Z M39.1197824,39 C38.9451696,39 38.7861938,38.9858456 38.6428549,38.9575368 C38.499516,38.9292279 38.3926634,38.8988971 38.3222971,38.8665441 L38.6037625,37.8757353 C38.8174677,37.935049 39.0077175,37.9606618 39.1745118,37.9525735 C39.3413061,37.9444853 39.4892057,37.8797794 39.6182107,37.7584559 C39.7472157,37.6371324 39.8612353,37.4389706 39.9602694,37.1639706 L40.1049113,36.7514706 L37.9079174,30.4588235 L39.1588748,30.4588235 L40.6795699,35.2794118 L40.7421177,35.2794118 L42.2628128,30.4588235 L43.5176794,30.4588235 L41.0431293,37.4996324 C40.9284583,37.8231618 40.7825132,38.0974877 40.6052943,38.3226103 C40.4280753,38.5477328 40.2169763,38.7169118 39.9719971,38.8301471 C39.727018,38.9433824 39.4429464,39 39.1197824,39 Z M47.5324707,36.6705882 L47.5324707,30.4588235 L48.6544231,30.4588235 L48.6544231,31.4698529 L48.7286987,31.4698529 C48.8537944,31.127451 49.0583781,30.8598652 49.3424496,30.6670956 C49.6265212,30.474326 49.9666252,30.3779412 50.3627617,30.3779412 C50.7641105,30.3779412 51.1009569,30.475 51.3733007,30.6691176 C51.6456446,30.8632353 51.8469705,31.1301471 51.9772786,31.4698529 L52.0398264,31.4698529 C52.1831653,31.1382353 52.4112044,30.8733456 52.7239438,30.6751838 C53.0366831,30.4770221 53.4093641,30.3779412 53.8419869,30.3779412 C54.3866746,30.3779412 54.8316766,30.5545343 55.176993,30.9077206 C55.5223093,31.2609069 55.6949675,31.7933824 55.6949675,32.5051471 L55.6949675,36.6705882 L54.5261042,36.6705882 L54.5261042,32.6183824 C54.5261042,32.1977941 54.4153424,31.8931373 54.1938187,31.7044118 C53.972295,31.5156863 53.7077696,31.4213235 53.4002426,31.4213235 C53.019743,31.4213235 52.7239438,31.541973 52.5128447,31.7832721 C52.3017456,32.0245711 52.1961961,32.3339461 52.1961961,32.7113971 L52.1961961,36.6705882 L51.0312421,36.6705882 L51.0312421,32.5415441 C51.0312421,32.2045343 50.9296018,31.9335784 50.7263212,31.7286765 C50.5230406,31.5237745 50.2585153,31.4213235 49.9327451,31.4213235 C49.7112214,31.4213235 49.5072893,31.4813113 49.3209488,31.6012868 C49.1346083,31.7212623 48.984754,31.8877451 48.871386,32.1007353 C48.758018,32.3137255 48.701334,32.5604167 48.701334,32.8408088 L48.701334,36.6705882 L47.5324707,36.6705882 Z M59.7879436,36.7959559 C59.2250128,36.7959559 58.7337514,36.6625 58.3141595,36.3955882 C57.8945675,36.1286765 57.5687974,35.7552696 57.336849,35.2753676 C57.1049007,34.7954657 56.9889265,34.2346814 56.9889265,33.5930147 C56.9889265,32.948652 57.1049007,32.3851716 57.336849,31.9025735 C57.5687974,31.4199755 57.8945675,31.0452206 58.3141595,30.7783088 C58.7337514,30.5113971 59.2250128,30.3779412 59.7879436,30.3779412 C60.3508744,30.3779412 60.8421358,30.5113971 61.2617278,30.7783088 C61.6813197,31.0452206 62.0070899,31.4199755 62.2390382,31.9025735 C62.4709866,32.3851716 62.5869607,32.948652 62.5869607,33.5930147 C62.5869607,34.2346814 62.4709866,34.7954657 62.2390382,35.2753676 C62.0070899,35.7552696 61.6813197,36.1286765 61.2617278,36.3955882 C60.8421358,36.6625 60.3508744,36.7959559 59.7879436,36.7959559 Z M59.7918529,35.7808824 C60.1567154,35.7808824 60.4590301,35.6811275 60.698797,35.4816176 C60.9385638,35.2821078 61.1164343,35.0165441 61.2324085,34.6849265 C61.3483826,34.3533088 61.4063697,33.9879902 61.4063697,33.5889706 C61.4063697,33.1926471 61.3483826,32.8280025 61.2324085,32.4950368 C61.1164343,32.1620711 60.9385638,31.8944853 60.698797,31.6922794 C60.4590301,31.4900735 60.1567154,31.3889706 59.7918529,31.3889706 C59.4243841,31.3889706 59.1201148,31.4900735 58.8790449,31.6922794 C58.637975,31.8944853 58.459453,32.1620711 58.3434788,32.4950368 C58.2275046,32.8280025 58.1695175,33.1926471 58.1695175,33.5889706 C58.1695175,33.9879902 58.2275046,34.3533088 58.3434788,34.6849265 C58.459453,35.0165441 58.637975,35.2821078 58.8790449,35.4816176 C59.1201148,35.6811275 59.4243841,35.7808824 59.7918529,35.7808824 Z M65.0576015,32.9823529 L65.0576015,36.6705882 L63.8887383,36.6705882 L63.8887383,30.4588235 L65.0106906,30.4588235 L65.0106906,31.4698529 L65.0849662,31.4698529 C65.2230928,31.1409314 65.4400557,30.8767157 65.735855,30.6772059 C66.0316543,30.4776961 66.4049869,30.3779412 66.8558528,30.3779412 C67.2650201,30.3779412 67.6233672,30.4662377 67.9308942,30.6428309 C68.2384213,30.819424 68.476885,31.0816176 68.6462855,31.4294118 C68.815686,31.7772059 68.9003862,32.2072304 68.9003862,32.7194853 L68.9003862,36.6705882 L67.7315229,36.6705882 L67.7315229,32.8650735 C67.7315229,32.4148284 67.6181549,32.0623162 67.3914189,31.8075368 C67.1646829,31.5527574 66.8532466,31.4253676 66.4571101,31.4253676 C66.1860693,31.4253676 65.945651,31.4860294 65.735855,31.6073529 C65.526059,31.7286765 65.3605678,31.9059436 65.2393813,32.1391544 C65.1181948,32.3723652 65.0576015,32.6534314 65.0576015,32.9823529 Z M70.4640829,36.6705882 L70.4640829,30.4588235 L71.6329462,30.4588235 L71.6329462,36.6705882 L70.4640829,36.6705882 Z M71.0543784,29.5003676 C70.8510978,29.5003676 70.6771366,29.4295956 70.5324946,29.2880515 C70.3878527,29.1465074 70.3155317,28.9773284 70.3155317,28.7805147 C70.3155317,28.5810049 70.3878527,28.4104779 70.5324946,28.2689338 C70.6771366,28.1273897 70.8510978,28.0566176 71.0543784,28.0566176 C71.257659,28.0566176 71.4316202,28.1273897 71.5762622,28.2689338 C71.7209041,28.4104779 71.7932251,28.5810049 71.7932251,28.7805147 C71.7932251,28.9773284 71.7209041,29.1465074 71.5762622,29.2880515 C71.4316202,29.4295956 71.257659,29.5003676 71.0543784,29.5003676 Z M76.0073877,30.4588235 L76.0073877,31.4294118 L72.7275339,31.4294118 L72.7275339,30.4588235 L76.0073877,30.4588235 Z M73.6071133,28.9705882 L74.7759766,28.9705882 L74.7759766,34.8466912 C74.7759766,35.08125 74.8098567,35.2571691 74.8776169,35.3744485 C74.9453771,35.4917279 75.033335,35.5712623 75.1414907,35.6130515 C75.2496464,35.6548407 75.3675752,35.6757353 75.4952771,35.6757353 C75.5890989,35.6757353 75.6711929,35.6689951 75.7415593,35.6555147 C75.8119257,35.6420343 75.866655,35.63125 75.9057475,35.6231618 L76.1168465,36.6220588 C76.0490863,36.6490196 75.9526584,36.6766544 75.8275626,36.7049632 C75.7024669,36.7332721 75.5460972,36.7487745 75.3584536,36.7514706 C75.0509266,36.7568627 74.7642489,36.7002451 74.4984204,36.5816176 C74.232592,36.4629902 74.0175837,36.2796569 73.8533955,36.0316176 C73.6892074,35.7835784 73.6071133,35.4721814 73.6071133,35.0974265 L73.6071133,28.9705882 Z M79.7641691,36.7959559 C79.2012383,36.7959559 78.7099769,36.6625 78.2903849,36.3955882 C77.870793,36.1286765 77.5450228,35.7552696 77.3130745,35.2753676 C77.0811261,34.7954657 76.965152,34.2346814 76.965152,33.5930147 C76.965152,32.948652 77.0811261,32.3851716 77.3130745,31.9025735 C77.5450228,31.4199755 77.870793,31.0452206 78.2903849,30.7783088 C78.7099769,30.5113971 79.2012383,30.3779412 79.7641691,30.3779412 C80.3270999,30.3779412 80.8183613,30.5113971 81.2379532,30.7783088 C81.6575452,31.0452206 81.9833153,31.4199755 82.2152637,31.9025735 C82.447212,32.3851716 82.5631862,32.948652 82.5631862,33.5930147 C82.5631862,34.2346814 82.447212,34.7954657 82.2152637,35.2753676 C81.9833153,35.7552696 81.6575452,36.1286765 81.2379532,36.3955882 C80.8183613,36.6625 80.3270999,36.7959559 79.7641691,36.7959559 Z M79.7680783,35.7808824 C80.1329409,35.7808824 80.4352556,35.6811275 80.6750224,35.4816176 C80.9147892,35.2821078 81.0926597,35.0165441 81.2086339,34.6849265 C81.3246081,34.3533088 81.3825952,33.9879902 81.3825952,33.5889706 C81.3825952,33.1926471 81.3246081,32.8280025 81.2086339,32.4950368 C81.0926597,32.1620711 80.9147892,31.8944853 80.6750224,31.6922794 C80.4352556,31.4900735 80.1329409,31.3889706 79.7680783,31.3889706 C79.4006096,31.3889706 79.0963403,31.4900735 78.8552704,31.6922794 C78.6142005,31.8944853 78.4356784,32.1620711 78.3197042,32.4950368 C78.2037301,32.8280025 78.145743,33.1926471 78.145743,33.5889706 C78.145743,33.9879902 78.2037301,34.3533088 78.3197042,34.6849265 C78.4356784,35.0165441 78.6142005,35.2821078 78.8552704,35.4816176 C79.0963403,35.6811275 79.4006096,35.7808824 79.7680783,35.7808824 Z M83.8649637,36.6705882 L83.8649637,30.4588235 L84.9947346,30.4588235 L84.9947346,31.4455882 L85.0572824,31.4455882 C85.1667412,31.1112745 85.3602487,30.8477328 85.6378048,30.6549632 C85.915361,30.4621936 86.230055,30.3658088 86.5818867,30.3658088 C86.6548592,30.3658088 86.7415141,30.3685049 86.8418513,30.3738971 C86.9421885,30.3792892 87.0210249,30.3860294 87.0783604,30.3941176 L87.0783604,31.5507353 C87.0314495,31.5372549 86.9480524,31.5217525 86.828169,31.5042279 C86.7082855,31.4867034 86.5884021,31.4779412 86.4685187,31.4779412 C86.1922656,31.4779412 85.9466349,31.5379289 85.7316266,31.6579044 C85.5166183,31.7778799 85.3465663,31.9436887 85.2214706,32.1553309 C85.0963749,32.366973 85.033827,32.607598 85.033827,32.8772059 L85.033827,36.6705882 L83.8649637,36.6705882 Z M89.787465,36.8080882 C89.4069654,36.8080882 89.0629522,36.7346201 88.7554252,36.5876838 C88.4478981,36.4407475 88.2048736,36.2270833 88.0263516,35.9466912 C87.8478295,35.666299 87.7585685,35.322549 87.7585685,34.9154412 C87.7585685,34.564951 87.8237225,34.2764706 87.9540306,34.05 C88.0843386,33.8235294 88.2602545,33.6442402 88.4817782,33.5121324 C88.7033019,33.3800245 88.9508872,33.2802696 89.2245342,33.2128676 C89.4981811,33.1454657 89.7770403,33.0942402 90.0611119,33.0591912 C90.4207621,33.0160539 90.7126522,32.9803309 90.9367821,32.9520221 C91.1609119,32.9237132 91.323797,32.8772059 91.4254373,32.8125 C91.5270776,32.7477941 91.5778977,32.6426471 91.5778977,32.4970588 L91.5778977,32.46875 C91.5778977,32.1155637 91.4821213,31.8419118 91.2905684,31.6477941 C91.0990156,31.4536765 90.8142925,31.3566176 90.4363991,31.3566176 C90.0428688,31.3566176 89.7333871,31.4462623 89.5079542,31.6255515 C89.2825213,31.8048407 89.1268031,32.0036765 89.0407998,32.2220588 L87.9423029,31.9632353 C88.0726109,31.5857843 88.2635122,31.2804534 88.5150068,31.0472426 C88.7665013,30.8140319 89.0564368,30.6441789 89.3848131,30.5376838 C89.7131894,30.4311887 90.0585057,30.3779412 90.4207621,30.3779412 C90.660529,30.3779412 90.9152812,30.406924 91.1850189,30.4648897 C91.4547566,30.5228554 91.7075542,30.6286765 91.9434118,30.7823529 C92.1792694,30.9360294 92.3727769,31.1550858 92.5239342,31.4395221 C92.6750916,31.7239583 92.7506702,32.0926471 92.7506702,32.5455882 L92.7506702,36.6705882 L91.6091716,36.6705882 L91.6091716,35.8213235 L91.5622607,35.8213235 C91.4866821,35.9776961 91.3733141,36.1313725 91.2221567,36.2823529 C91.0709994,36.4333333 90.8768404,36.558701 90.6396797,36.6584559 C90.402519,36.7582108 90.1184474,36.8080882 89.787465,36.8080882 Z M90.0415657,35.8375 C90.3647297,35.8375 90.6416343,35.7714461 90.8722796,35.6393382 C91.1029248,35.5072304 91.2788407,35.3340074 91.4000272,35.1196691 C91.5212137,34.9053309 91.581807,34.6754902 91.581807,34.4301471 L91.581807,33.6294118 C91.5401084,33.672549 91.4599689,33.7123162 91.3413886,33.7487132 C91.2228082,33.7851103 91.0879394,33.8161152 90.9367821,33.8417279 C90.7856247,33.8673407 90.6383766,33.8902574 90.4950377,33.9104779 C90.3516989,33.9306985 90.2318155,33.947549 90.1353875,33.9610294 C89.9086515,33.9906863 89.7021132,34.0405637 89.5157727,34.1106618 C89.3294322,34.1807598 89.180881,34.2811887 89.0701191,34.4119485 C88.9593573,34.5427083 88.9039763,34.7159314 88.9039763,34.9316176 C88.9039763,35.2308824 89.0108289,35.4566789 89.2245342,35.6090074 C89.4382394,35.7613358 89.7105832,35.8375 90.0415657,35.8375 Z" id="subtext" fill="#202226"/>
        </g>
    </g>
</svg>