<svg width="999" height="256" viewBox="0 0 999 256" fill="none" xmlns="http://www.w3.org/2000/svg">
<path d="M886 110C883.083 105.598 877.285 101.91 869.138 101.91C853.75 101.91 845 114.215 845 129.122C845 143.928 853.75 156.234 869.138 156.234C877.285 156.234 883.681 152.902 887 147.5V155.033H898V80H886V110ZM886.337 129.122C886.337 138.426 880.805 145.729 871.653 145.729C862.601 145.729 856.969 138.426 856.969 129.122C856.969 119.618 862.601 112.414 871.653 112.414C880.805 112.414 886.337 119.618 886.337 129.122Z" fill="white"/>
<path d="M792.101 130.713V134.014C792.101 141.017 787.374 147.02 777.719 147.02C771.986 147.02 768.466 145.119 768.466 140.217C768.466 136.615 770.879 133.914 778.221 132.814L792.101 130.713ZM775.305 156.324C783.653 156.324 789.48 153.802 793 148.5C793 152.702 793.899 155 794 155H805C804.095 152.899 803.768 148.721 803.768 145.319V121.409C803.768 109.503 796.526 102 781.239 102C765.448 102 759.006 109.896 758 119H770C770.805 114.198 774.4 111.804 780.937 111.804C788.078 111.804 792.101 115.006 792.101 121.309V122.109L777.015 124.21C763.236 126.111 757 131.813 757 140.617C757 149.521 762.33 156.324 775.305 156.324Z" fill="white"/>
<path d="M724.95 156C741.581 156 752 143.569 752 129.05C752 114.53 741.581 102 724.95 102C708.419 102 698 114.53 698 129.05C698 143.569 708.419 156 724.95 156ZM709.922 129.05C709.922 119.006 716.334 112.442 724.95 112.442C733.666 112.442 740.078 119.006 740.078 129.05C740.078 138.994 733.666 145.558 724.95 145.558C716.334 145.558 709.922 138.994 709.922 129.05Z" fill="white"/>
<path d="M652.771 109.913V80H640.802V155.033H651.866V147.63C655.285 153.032 661.421 156.234 669.467 156.234C684.956 156.234 693.706 143.928 693.706 129.122C693.706 114.215 684.956 101.91 669.467 101.91C661.421 101.91 655.688 105.511 652.771 109.913ZM652.369 129.122C652.369 119.618 657.9 112.414 667.053 112.414C676.105 112.414 681.737 119.618 681.737 129.122C681.737 138.426 676.105 145.729 667.053 145.729C657.9 145.729 652.369 138.426 652.369 129.122Z" fill="white"/>
<path d="M631 145C631 145 628.759 145.324 626.748 145.324C622.624 145.324 621 143.102 621 139V113.01H631V104H621V90H609V104H601V113.01H609V140.5C609 150.304 613.572 155.729 624.233 155.729C628.256 155.729 631 155 631 155V145Z" fill="white"/>
<path d="M546 129.212C546 144.219 556.661 156.324 572.049 156.324C587.538 156.324 595.592 145.304 597 136H584.5C583.092 141.602 578.386 145.819 571.949 145.819C563.4 145.819 557.969 138.916 557.969 129.212C557.969 119.408 563.4 112.505 571.949 112.505C578.386 112.505 583.092 116.398 584.5 122L597 122.009C595.592 112.705 587.538 102 572.049 102C556.661 102 546 114.105 546 129.212Z" fill="white"/>
<path d="M526.031 132.913C526.031 141.417 521.57 145.919 514.127 145.919C506.885 145.919 503.969 141.217 503.969 134.114V103H492V135.714C492 147.82 498.538 156.124 511.21 156.124C519.659 156.124 524.724 152.322 526.936 148.22V154.923H538V103H526.031V132.913Z" fill="white"/>
<path d="M471 110C468.083 105.598 462.285 101.91 454.138 101.91C438.75 101.91 430 114.215 430 129.122C430 143.928 438.75 156.234 454.138 156.234C462.285 156.234 468.681 152.902 472 147.5V155.033H483V80H471V110ZM471.337 129.122C471.337 138.426 465.805 145.729 456.653 145.729C447.601 145.729 441.969 138.426 441.969 129.122C441.969 119.618 447.601 112.414 456.653 112.414C465.805 112.414 471.337 119.618 471.337 129.122Z" fill="white"/>
<path d="M397.95 156C414.581 156 425 143.569 425 129.05C425 114.53 414.581 102 397.95 102C381.419 102 371 114.53 371 129.05C371 143.569 381.419 156 397.95 156ZM382.922 129.05C382.922 119.006 389.334 112.442 397.95 112.442C406.666 112.442 413.078 119.006 413.078 129.05C413.078 138.994 406.666 145.558 397.95 145.558C389.334 145.558 382.922 138.994 382.922 129.05Z" fill="white"/>
<path d="M369.161 102.71C369.161 102.71 367.955 102.61 367.452 102.61C358.4 102.61 353.911 107.199 352 110.5L352.063 103H341V155H353V128C353 117.996 357.997 113.615 366.446 113.615C367.753 113.615 369.161 113.815 369.161 113.815V102.71Z" fill="white"/>
<path d="M842.161 102.71C842.161 102.71 840.955 102.61 840.452 102.61C831.4 102.61 826.911 107.199 825 110.5L825.063 103H814V155H826V128C826 117.996 830.997 113.615 839.446 113.615C840.753 113.615 842.161 113.815 842.161 113.815V102.71Z" fill="white"/>
<path d="M293 148C295.917 152.502 301.618 156.234 309.664 156.234C325.153 156.234 333.903 143.929 333.903 129.122C333.903 114.216 325.153 101.91 309.664 101.91C301.618 101.91 295.42 105.198 292 110.5V103H281V176H292.969L293 148ZM292.566 129.122C292.566 119.518 298.098 112.215 307.25 112.215C316.302 112.215 321.935 119.518 321.935 129.122C321.935 138.426 316.302 145.73 307.25 145.73C298.098 145.73 292.566 138.426 292.566 129.122Z" fill="white"/>
<path d="M190 85L234 129L190 173L146 129L190 85Z" fill="#0071E1"/>
<path d="M190 85L146 129L102 85H190Z" fill="#FFC600"/>
<path d="M146 129L190 173H102L146 129Z" fill="#F84136"/>
</svg>
